<?xml version="1.0" encoding="utf-8"?>
<!DOCTYPE svg PUBLIC "-//W3C//DTD SVG 1.1//EN" "http://www.w3.org/Graphics/SVG/1.1/DTD/svg11.dtd">
<svg version="1.1" id="Слой_1" xmlns="http://www.w3.org/2000/svg" xmlns:xlink="http://www.w3.org/1999/xlink" x="0px" y="0px"
	 width="174px" height="26px" viewBox="0 0 174 26" enable-background="new 0 0 174 26" xml:space="preserve">
<g>
	<path fill="#76B832" d="M29.702,19.973c-0.644,0-1.165-0.521-1.165-1.164V4.265c0-0.643,0.521-1.164,1.165-1.164
		c0.642,0,1.164,0.521,1.164,1.164v14.543C30.865,19.451,30.344,19.973,29.702,19.973"/>
	<path fill="#28A768" d="M24.7,18.973c-0.643,0-1.164-0.521-1.164-1.164V5.266c0-0.643,0.521-1.164,1.164-1.164
		c0.644,0,1.165,0.521,1.165,1.164v12.543C25.864,18.451,25.343,18.973,24.7,18.973"/>
	<path fill="#038A9E" d="M19.698,17.971c-0.643,0-1.164-0.52-1.164-1.162V6.265c0-0.643,0.521-1.164,1.164-1.164
		c0.643,0,1.164,0.521,1.164,1.164v10.543C20.862,17.451,20.341,17.971,19.698,17.971"/>
	<path fill="#064A85" d="M16.418,21.619l-2.976-4.996c0.049-0.035,0.102-0.063,0.149-0.1c1.228-0.969,2.005-2.358,2.187-3.912
		c0.262-2.227-0.794-4.439-2.689-5.636c-0.489-0.309-1.135-0.164-1.444,0.326c-0.309,0.488-0.163,1.135,0.325,1.443
		c1.219,0.77,1.898,2.191,1.729,3.623c-0.117,0.998-0.616,1.891-1.405,2.514c-0.789,0.623-1.771,0.898-2.771,0.785
		c-0.999-0.117-1.892-0.615-2.515-1.406c-0.623-0.789-0.901-1.771-0.785-2.771c0.133-1.129,0.759-2.127,1.719-2.737
		c0.488-0.311,0.631-0.958,0.321-1.445C7.954,6.82,7.306,6.676,6.819,6.986c-1.493,0.95-2.468,2.502-2.673,4.258
		c-0.183,1.553,0.251,3.086,1.22,4.313c0.97,1.229,2.359,2.006,3.913,2.188c0.232,0.027,0.465,0.041,0.695,0.041
		c0.458,0,0.907-0.072,1.346-0.176l3.099,5.203c0.328,0.551,1.042,0.73,1.595,0.402C16.566,22.885,16.746,22.172,16.418,21.619"/>
	<path fill="#064A85" d="M39.43,16.225c-0.22-0.244-0.352-0.529-0.352-0.813c0-0.615,0.504-1.055,1.076-1.055
		c0.262,0,0.503,0.089,0.701,0.309c0.789,0.943,1.929,1.689,3.356,1.689c1.535,0,2.501-0.813,2.501-2.018
		c0-0.945-0.526-1.427-2.129-2.173l-1.601-0.746c-2.302-1.075-3.376-2.279-3.376-4.014c0-2.279,1.952-3.925,4.563-3.925
		c1.885-0.02,3.202,0.789,4.035,1.712c0.262,0.284,0.351,0.569,0.351,0.832c0,0.549-0.526,1.033-1.075,1.033
		c-0.24,0-0.482-0.112-0.7-0.309c-0.704-0.702-1.559-1.184-2.61-1.184c-1.317,0-2.192,0.68-2.192,1.756
		c0,0.897,0.437,1.315,2.015,2.061l1.624,0.746c2.413,1.118,3.465,2.282,3.465,4.123c0,2.522-2.038,4.188-4.845,4.188
		C42.435,18.438,40.548,17.582,39.43,16.225"/>
	<path fill="#064A85" d="M68.069,11.464v5.79c0,0.703-0.503,1.184-1.164,1.184c-0.657,0-1.161-0.504-1.161-1.184v-5.461
		c0-1.536-0.854-2.501-2.238-2.501c-1.358,0-2.367,1.009-2.367,2.39v5.572c0,0.703-0.506,1.184-1.141,1.184
		c-0.68,0-1.163-0.504-1.163-1.184v-5.461c0-1.515-0.898-2.501-2.259-2.501c-1.403,0-2.369,1.009-2.369,2.501v5.461
		c0,0.703-0.481,1.184-1.141,1.184c-0.658,0-1.161-0.504-1.161-1.184V8.371c0-0.68,0.483-1.183,1.161-1.183
		c0.614,0,1.098,0.48,1.12,1.117c0.746-0.703,1.775-1.117,2.982-1.117c1.469,0,2.61,0.592,3.267,1.686
		c0.813-1.051,2.128-1.686,3.643-1.686C66.534,7.188,68.069,8.832,68.069,11.464"/>
	<path fill="#064A85" d="M79.82,11.682v5.596c0,0.68-0.48,1.16-1.141,1.16c-0.657,0-1.141-0.504-1.141-1.16v-0.133
		c-0.79,0.832-1.929,1.293-3.311,1.293c-2.237,0-3.75-1.25-3.75-3.113c0-1.887,1.535-3.07,3.97-3.07h3.048V11.55
		c0-1.469-0.833-2.301-2.302-2.301c-0.901,0-1.712,0.33-2.393,1.009c-0.284,0.241-0.526,0.353-0.789,0.353
		c-0.549,0-1.01-0.463-1.01-0.967c0-0.329,0.155-0.638,0.46-0.943c0.923-0.964,2.347-1.514,3.928-1.514
		C78.176,7.187,79.82,8.854,79.82,11.682 M77.496,14.117V13.92h-2.764c-1.25,0-1.907,0.461-1.907,1.316
		c0,0.877,0.746,1.426,1.887,1.426C76.268,16.662,77.496,15.543,77.496,14.117"/>
	<path fill="#064A85" d="M89.403,8.372c0,0.634-0.461,1.074-1.119,1.118c-1.754,0.045-2.961,1.229-2.961,2.961v4.804
		c0,0.703-0.482,1.184-1.141,1.184c-0.657,0-1.163-0.504-1.163-1.184V8.372c0-0.681,0.483-1.185,1.163-1.185
		c0.635,0,1.119,0.504,1.119,1.185v0.329c0.723-0.855,1.798-1.381,3.003-1.381C88.942,7.32,89.403,7.757,89.403,8.372"/>
	<path fill="#064A85" d="M97.866,17.254c0,0.482-0.241,0.811-0.681,0.965c-0.371,0.152-0.833,0.219-1.447,0.219
		c-2.566,0-3.971-1.316-3.971-3.748V9.423h-0.854c-0.57,0-1.029-0.417-1.029-0.986c0-0.569,0.459-1.01,1.029-1.01h0.854V5.541
		c0-0.656,0.507-1.183,1.164-1.183c0.658,0,1.163,0.504,1.163,1.183v1.887h2.302c0.592,0,1.031,0.44,1.031,1.01
		c0,0.569-0.439,0.986-1.031,0.986h-2.302v5.067c0,1.316,0.634,1.865,2.104,1.865c0.263,0,0.461-0.023,0.657-0.023
		C97.471,16.332,97.866,16.705,97.866,17.254"/>
	<path fill="#064A85" d="M104.533,17.254V5.804h-3.903c-0.614,0-1.075-0.438-1.075-1.029c0-0.592,0.461-1.053,1.075-1.053h10.154
		c0.612,0,1.075,0.46,1.075,1.053c0,0.591-0.463,1.029-1.075,1.029h-3.928v11.45c0,0.68-0.503,1.184-1.161,1.184
		C105.039,18.438,104.533,17.934,104.533,17.254"/>
	<path fill="#064A85" d="M121.945,12.188v0.109c0,0.789-0.505,1.271-1.317,1.271h-6.887c0.309,1.732,1.601,2.83,3.511,2.83
		c0.92,0,1.798-0.285,2.521-0.834c0.197-0.133,0.394-0.219,0.591-0.219c0.55,0,0.967,0.416,0.967,0.965
		c0,0.395-0.155,0.656-0.571,0.967c-1.03,0.766-2.236,1.16-3.574,1.16c-3.333,0-5.791-2.391-5.791-5.615
		c0-3.179,2.412-5.635,5.548-5.635C119.815,7.187,121.945,9.292,121.945,12.188 M113.786,11.771h5.856
		c-0.044-1.558-1.142-2.631-2.765-2.631C115.321,9.14,114.136,10.192,113.786,11.771"/>
	<path fill="#064A85" d="M133.981,11.464v5.79c0,0.703-0.503,1.184-1.141,1.184c-0.68,0-1.163-0.504-1.163-1.184v-5.483
		c0-1.492-0.94-2.499-2.345-2.499c-1.426,0-2.458,1.052-2.458,2.499v5.483c0,0.703-0.48,1.184-1.141,1.184
		c-0.657,0-1.161-0.504-1.161-1.184V8.371c0-0.68,0.484-1.183,1.161-1.183c0.637,0,1.12,0.503,1.12,1.183
		c0.768-0.746,1.841-1.183,3.091-1.183C132.403,7.188,133.981,8.854,133.981,11.464"/>
	<path fill="#064A85" d="M147.688,2.69v14.587c0,0.68-0.506,1.16-1.142,1.16c-0.657,0-1.14-0.504-1.14-1.16v-0.441
		c-0.789,1.01-2.084,1.602-3.642,1.602c-3.026,0-5.263-2.367-5.263-5.615c0-3.245,2.236-5.634,5.263-5.634
		c1.515,0,2.787,0.591,3.596,1.555V2.69c0-0.68,0.507-1.183,1.164-1.183S147.688,1.988,147.688,2.69 M145.406,12.822
		c0-2.082-1.318-3.53-3.247-3.53c-1.907,0-3.312,1.492-3.312,3.511c0,2.039,1.381,3.529,3.312,3.529
		C144.088,16.332,145.406,14.906,145.406,12.822"/>
	<path fill="#064A85" d="M160.887,12.188v0.109c0,0.789-0.506,1.271-1.317,1.271h-6.887c0.309,1.732,1.602,2.83,3.511,2.83
		c0.92,0,1.798-0.285,2.521-0.834c0.198-0.133,0.395-0.219,0.592-0.219c0.549,0,0.967,0.416,0.967,0.965
		c0,0.395-0.154,0.656-0.571,0.967c-1.029,0.766-2.236,1.16-3.573,1.16c-3.334,0-5.792-2.391-5.792-5.615
		c0-3.179,2.413-5.635,5.549-5.635C158.758,7.187,160.887,9.292,160.887,12.188 M152.729,11.771h5.854
		c-0.043-1.558-1.14-2.631-2.765-2.631C154.264,9.14,153.078,10.192,152.729,11.771"/>
	<path fill="#064A85" d="M169.896,8.372c0,0.634-0.461,1.074-1.117,1.118c-1.755,0.045-2.961,1.229-2.961,2.961v4.804
		c0,0.703-0.48,1.184-1.141,1.184c-0.658,0-1.161-0.504-1.161-1.184V8.372c0-0.681,0.482-1.185,1.161-1.185
		c0.637,0,1.12,0.504,1.12,1.185v0.329c0.723-0.855,1.798-1.381,3.004-1.381C169.435,7.32,169.896,7.757,169.896,8.372"/>
</g>
</svg>
